<svg width="208" height="77" viewBox="0 0 208 77" fill="none" xmlns="http://www.w3.org/2000/svg">
<path fill-rule="evenodd" clip-rule="evenodd" d="M26.0002 50.7866V67.1428L9.64404 58.9647L26.0002 50.7866Z" fill="#1F458A"/>
<path fill-rule="evenodd" clip-rule="evenodd" d="M9.64404 9.85735L42.3564 26.2484V42.5697L9.64404 26.2135V9.85735Z" fill="#1F458A"/>
<path fill-rule="evenodd" clip-rule="evenodd" d="M9.64404 58.9647L42.3564 42.5736V26.2523L9.64404 42.6085V58.9647Z" fill="#234F9D"/>
<path d="M73.3927 29.652V46.5H69.2887V36.396L65.5207 46.5H62.2087L58.4167 36.372V46.5H54.3127V29.652H59.1607L63.8887 41.316L68.5687 29.652H73.3927ZM91.024 33.108L82.624 52.86H78.208L81.28 46.044L75.832 33.108H80.416L83.512 41.484L86.584 33.108H91.024Z" fill="#404040"/>
<path d="M97.612 29.652V46.5H93.508V29.652H97.612ZM116.658 46.5H112.554L105.69 36.108V46.5H101.586V29.652H105.69L112.554 40.092V29.652H116.658V46.5ZM136.449 29.652L130.473 46.5H125.337L119.361 29.652H123.729L127.905 42.372L132.105 29.652H136.449ZM147.132 46.668C145.548 46.668 144.092 46.3 142.764 45.564C141.452 44.828 140.404 43.804 139.62 42.492C138.852 41.164 138.468 39.676 138.468 38.028C138.468 36.38 138.852 34.9 139.62 33.588C140.404 32.276 141.452 31.252 142.764 30.516C144.092 29.78 145.548 29.412 147.132 29.412C148.716 29.412 150.164 29.78 151.476 30.516C152.804 31.252 153.844 32.276 154.596 33.588C155.364 34.9 155.748 36.38 155.748 38.028C155.748 39.676 155.364 41.164 154.596 42.492C153.828 43.804 152.788 44.828 151.476 45.564C150.164 46.3 148.716 46.668 147.132 46.668ZM147.132 42.924C148.476 42.924 149.548 42.476 150.348 41.58C151.164 40.684 151.572 39.5 151.572 38.028C151.572 36.54 151.164 35.356 150.348 34.476C149.548 33.58 148.476 33.132 147.132 33.132C145.772 33.132 144.684 33.572 143.868 34.452C143.068 35.332 142.668 36.524 142.668 38.028C142.668 39.516 143.068 40.708 143.868 41.604C144.684 42.484 145.772 42.924 147.132 42.924ZM163.135 29.652V46.5H159.031V29.652H163.135ZM166.414 38.052C166.414 36.388 166.774 34.908 167.494 33.612C168.214 32.3 169.214 31.284 170.494 30.564C171.79 29.828 173.254 29.46 174.886 29.46C176.886 29.46 178.598 29.988 180.022 31.044C181.446 32.1 182.398 33.54 182.878 35.364H178.366C178.03 34.66 177.55 34.124 176.926 33.756C176.318 33.388 175.622 33.204 174.838 33.204C173.574 33.204 172.55 33.644 171.766 34.524C170.982 35.404 170.59 36.58 170.59 38.052C170.59 39.524 170.982 40.7 171.766 41.58C172.55 42.46 173.574 42.9 174.838 42.9C175.622 42.9 176.318 42.716 176.926 42.348C177.55 41.98 178.03 41.444 178.366 40.74H182.878C182.398 42.564 181.446 44.004 180.022 45.06C178.598 46.1 176.886 46.62 174.886 46.62C173.254 46.62 171.79 46.26 170.494 45.54C169.214 44.804 168.214 43.788 167.494 42.492C166.774 41.196 166.414 39.716 166.414 38.052ZM190.495 32.94V36.348H195.991V39.516H190.495V43.212H196.711V46.5H186.391V29.652H196.711V32.94H190.495Z" fill="#234F9D"/>
</svg>
